<svg xmlns="http://www.w3.org/2000/svg" width="512" height="512" viewBox="0 0 512 512" role="img" aria-labelledby="title desc">
<title id="title">Nails glitter accent 04</title><desc id="desc">Reusable transparent glitter accent 04 for the Nari nails page.</desc>
<defs>
<linearGradient id="warmGlow" x1="0" y1="0" x2="1" y2="1"><stop offset="0" stop-color="#ffe6bc"/><stop offset="1" stop-color="#be82c8"/></linearGradient>
<linearGradient id="purpleGlass" x1="0" y1="0" x2="1" y2="1"><stop offset="0" stop-color="#d7b9ff" stop-opacity=".9"/><stop offset=".45" stop-color="#8f5cc7"/><stop offset="1" stop-color="#4b2f64"/></linearGradient>
<linearGradient id="cloth" x1="0" y1="0" x2="0" y2="1"><stop offset="0" stop-color="#b89ad9"/><stop offset="1" stop-color="#76599a"/></linearGradient>
<filter id="softShadow" x="-30%" y="-30%" width="160%" height="160%"><feGaussianBlur in="SourceAlpha" stdDeviation="14" result="blur"/><feOffset in="blur" dx="0" dy="12" result="off"/><feFlood flood-color="#23172e" flood-opacity=".28" result="flood"/><feComposite in="flood" in2="off" operator="in" result="shadow"/><feMerge><feMergeNode in="shadow"/><feMergeNode in="SourceGraphic"/></feMerge></filter>
<filter id="glow" x="-60%" y="-60%" width="220%" height="220%"><feGaussianBlur stdDeviation="8" result="b"/><feMerge><feMergeNode in="b"/><feMergeNode in="SourceGraphic"/></feMerge></filter>
</defs><circle cx="281.0" cy="256.0" r="6" fill="#8f5cc7" opacity="0.55"/><circle cx="233.6" cy="276.6" r="8" fill="#e9a7c5" opacity="0.65"/><circle cx="259.1" cy="220.3" r="10" fill="#d7a44a" opacity="0.75"/><circle cx="281.2" cy="288.6" r="12" fill="#cdb4f4" opacity="0.8500000000000001"/><circle cx="210.1" cy="248.1" r="6" fill="#8f5cc7" opacity="0.55"/><circle cx="299.7" cy="227.9" r="8" fill="#e9a7c5" opacity="0.65"/><circle cx="241.4" cy="311.5" r="10" fill="#d7a44a" opacity="0.75"/><circle cx="226.7" cy="200.5" r="12" fill="#cdb4f4" opacity="0.8500000000000001"/><circle cx="320.2" cy="278.9" r="6" fill="#8f5cc7" opacity="0.55"/><circle cx="188.2" cy="284.7" r="8" fill="#e9a7c5" opacity="0.65"/><circle cx="288.8" cy="184.1" r="10" fill="#d7a44a" opacity="0.75"/><circle cx="282.1" cy="336.3" r="12" fill="#cdb4f4" opacity="0.8500000000000001"/><circle cx="177.8" cy="211.9" r="6" fill="#8f5cc7" opacity="0.55"/><circle cx="348.7" cy="234.4" r="8" fill="#e9a7c5" opacity="0.65"/><circle cx="199.3" cy="339.1" r="10" fill="#d7a44a" opacity="0.75"/><circle cx="240.9" cy="151.1" r="12" fill="#cdb4f4" opacity="0.8500000000000001"/><circle cx="342.3" cy="326.5" r="6" fill="#8f5cc7" opacity="0.55"/><circle cx="139.4" cy="262.7" r="8" fill="#e9a7c5" opacity="0.65"/><circle cx="341.1" cy="168.3" r="10" fill="#d7a44a" opacity="0.75"/><circle cx="252.4" cy="383.6" r="12" fill="#cdb4f4" opacity="0.8500000000000001"/><circle cx="168.8" cy="155.5" r="6" fill="#8f5cc7" opacity="0.55"/><circle cx="393.5" cy="271.7" r="8" fill="#e9a7c5" opacity="0.65"/><circle cx="139.7" cy="340.6" r="10" fill="#d7a44a" opacity="0.75"/><circle cx="285.5" cy="109.7" r="12" fill="#cdb4f4" opacity="0.8500000000000001"/><circle cx="335.9" cy="388.3" r="6" fill="#8f5cc7" opacity="0.55"/><circle cx="102.4" cy="211.1" r="8" fill="#e9a7c5" opacity="0.65"/><circle cx="404.4" cy="182.9" r="10" fill="#d7a44a" opacity="0.75"/><circle cx="194.2" cy="415.2" r="12" fill="#cdb4f4" opacity="0.8500000000000001"/><circle cx="191.9" cy="91.9" r="6" fill="#8f5cc7" opacity="0.55"/><circle cx="419.0" cy="336.0" r="8" fill="#e9a7c5" opacity="0.65"/><circle cx="76.6" cy="308.9" r="10" fill="#d7a44a" opacity="0.75"/><circle cx="355.2" cy="91.1" r="12" fill="#cdb4f4" opacity="0.8500000000000001"/><circle cx="295.5" cy="449.8" r="6" fill="#8f5cc7" opacity="0.55"/><circle cx="91.5" cy="136.7" r="8" fill="#e9a7c5" opacity="0.65"/>
</svg>