<svg xmlns="http://www.w3.org/2000/svg" viewBox="0 0 1600 900" role="img" aria-labelledby="t d"><title id="t">Work environment support</title><desc id="d">Cozy professional creator desk with lavender, sunset light, stationery, nail tools and a tiny ghostie.</desc>
<defs>
<linearGradient id="desk" x1="0" y1="0" x2="1" y2="1"><stop stop-color="#6B4A48"/><stop offset="1" stop-color="#332733"/></linearGradient>
<linearGradient id="sky"><stop stop-color="#F3C98E"/><stop offset=".55" stop-color="#DFA2A5"/><stop offset="1" stop-color="#8A739E"/></linearGradient>
<filter id="s" x="-30%" y="-30%" width="160%" height="160%"><feDropShadow dy="12" stdDeviation="14" flood-color="#21172A" flood-opacity=".28"/></filter>
</defs>
<ellipse cx="820" cy="680" rx="720" ry="170" fill="#251B2D" opacity=".12"/>
<g filter="url(#s)"><rect x="150" y="105" width="645" height="310" rx="28" fill="#352740"/><rect x="176" y="131" width="593" height="258" rx="18" fill="url(#sky)"/><path d="M176 316c115-80 222-55 326-108 93-47 171-23 267-76v257H176Z" fill="#685575" opacity=".56"/><path d="M472 131v258M176 260h593" stroke="#382A43" stroke-width="14" opacity=".7"/></g>
<path d="M80 580c306-67 566-41 823-33 253 8 444-8 628-69l23 283c-329 71-622 72-926 53-227-14-414 1-565 37Z" fill="url(#desk)" filter="url(#s)"/>
<g transform="translate(1220 170)" filter="url(#s)"><path d="M106 319c-9-112 14-195 83-266" fill="none" stroke="#2B2033" stroke-width="16" stroke-linecap="round"/><path d="M102 319h132" stroke="#2B2033" stroke-width="18" stroke-linecap="round"/><path d="M149 54c50-40 132-25 159 28l-76 81c-51-5-90-46-83-109Z" fill="#AA8BC4" stroke="#2B2033" stroke-width="8"/><ellipse cx="237" cy="138" rx="70" ry="24" fill="#FFD99C" opacity=".7"/></g>
<g transform="translate(210 625) rotate(-5)" filter="url(#s)"><rect width="310" height="150" rx="20" fill="#2F243A" stroke="#C89B5C" stroke-width="3"/><rect x="24" y="22" width="262" height="106" rx="12" fill="#40304D"/><path d="M132 51h102M132 79h74M132 107h90" stroke="#CDB7DD" stroke-width="9" stroke-linecap="round" opacity=".65"/><path d="M72 45c17-23 51-8 51 15 0 23-51 52-51 52S21 83 21 60c0-23 34-38 51-15Z" fill="none" stroke="#E9B7CB" stroke-width="4"/></g>
<g transform="translate(910 533)" filter="url(#s)"><path d="M0 94h145l-15 175H18Z" fill="#34273E" stroke="#C89B5C" stroke-width="4"/><path d="M27 37l18 185M68 8l3 214M116 25L92 221" stroke="#C9B6DB" stroke-width="12" stroke-linecap="round"/></g>
<g transform="translate(1110 515)" filter="url(#s)"><rect y="72" width="292" height="197" rx="18" fill="#4A354E"/><path d="M18 137h255M18 201h255" stroke="#795A79" stroke-width="8"/><g fill="#A98BC4" stroke="#281D31" stroke-width="5"><rect x="30" y="82" width="38" height="46" rx="8"/><rect x="84" y="82" width="38" height="46" rx="8"/><rect x="138" y="82" width="38" height="46" rx="8"/><rect x="192" y="82" width="38" height="46" rx="8"/></g><g fill="#E9B7CB" stroke="#281D31" stroke-width="5"><rect x="48" y="146" width="38" height="46" rx="8"/><rect x="108" y="146" width="38" height="46" rx="8"/><rect x="168" y="146" width="38" height="46" rx="8"/></g></g>
<g transform="translate(645 645)" filter="url(#s)"><path d="M20 20h145l-13 122c-2 22-15 35-37 35H67c-22 0-35-13-37-35Z" fill="#49324F" stroke="#C89B5C" stroke-width="4"/><ellipse cx="92" cy="20" rx="72" ry="24" fill="#281D31"/><path d="M162 54c76-8 84 75 12 86" fill="none" stroke="#49324F" stroke-width="18"/><path d="M72 78c15-20 37-20 50 0-13 20-25 29-25 29S84 98 72 78Z" fill="#F7EBDD" opacity=".82"/></g>
<g transform="translate(532 470)" filter="url(#s)"><path d="M77 16c-39 0-66 31-66 72v91l22-18 21 18 22-18 22 18 22-18 22 18V88c0-41-27-72-65-72Z" fill="#FFFDFB" stroke="#33243C" stroke-width="6"/><ellipse cx="58" cy="83" rx="7" ry="12" fill="#271E2F"/><ellipse cx="95" cy="83" rx="7" ry="12" fill="#271E2F"/><path d="M68 111c7 8 17 8 24 0" fill="none" stroke="#B97D9D" stroke-width="4" stroke-linecap="round"/></g>
</svg>