<svg xmlns="http://www.w3.org/2000/svg" viewBox="0 0 256 256" role="img" aria-labelledby="motif-ribbon-accent-title">
<title id="motif-ribbon-accent-title">motif-ribbon-accent</title>
<style>
:root{--motif-ink:#34213F;--motif-lavender:#9A78C8;--motif-lavender-light:#C8B5E6;--motif-pink:#F0A6C1;--motif-cream:#F8EAD8;--motif-gold:#E5B566;--motif-emerald:#3CB77A;--motif-emerald-dark:#1F6F50;--motif-autumn:#C96A3B;--motif-autumn-light:#E7A252;--motif-ghost:#F3EEFF;--motif-blue:#9BD7E8;}
.line{fill:none;stroke:var(--motif-ink);stroke-width:5;stroke-linecap:round;stroke-linejoin:round}
.thin{fill:none;stroke:var(--motif-ink);stroke-width:3.5;stroke-linecap:round;stroke-linejoin:round}
</style>

<path fill="none" stroke="var(--motif-lavender)" stroke-width="11" stroke-linecap="round" d="M23 157C55 111 79 109 101 134C119 154 139 152 153 132C168 110 186 104 208 117C227 128 229 151 217 169"/><path fill="none" stroke="var(--motif-lavender-light)" stroke-width="7" stroke-linecap="round" d="M24 157C49 181 71 186 91 171C112 156 128 159 145 174C164 191 190 189 216 169"/><path fill="none" stroke="var(--motif-ink)" stroke-width="3" stroke-linecap="round" d="M23 157C55 111 79 109 101 134C119 154 139 152 153 132C168 110 186 104 208 117C227 128 229 151 217 169"/>
</svg>